<?xml version="1.0" encoding="utf-8"?>
<!-- Generator: Adobe Illustrator 15.1.0, SVG Export Plug-In . SVG Version: 6.00 Build 0)  -->
<!DOCTYPE svg PUBLIC "-//W3C//DTD SVG 1.1//EN" "http://www.w3.org/Graphics/SVG/1.1/DTD/svg11.dtd">
<svg version="1.1" id="Ebene_1" xmlns="http://www.w3.org/2000/svg" xmlns:xlink="http://www.w3.org/1999/xlink" x="0px" y="0px"
	 width="350px" height="368px" viewBox="0 0 350 368" enable-background="new 0 0 350 368" xml:space="preserve">
<g id="Ebene_2">
	<rect x="1" y="86" fill-rule="evenodd" clip-rule="evenodd" fill="#EA2634" width="175" height="66"/>
	<rect x="53" y="30" fill-rule="evenodd" clip-rule="evenodd" fill="#EA2634" width="68" height="176"/>
	<g id="XMLID_1_">
		<g>
			<radialGradient id="SVGID_1_" cx="256.5" cy="118.4146" r="92.4997" gradientUnits="userSpaceOnUse">
				<stop  offset="0.0606" style="stop-color:#5EE600"/>
				<stop  offset="0.0716" style="stop-color:#62E706;stop-opacity:0.905"/>
				<stop  offset="0.0859" style="stop-color:#6CE816;stop-opacity:0.7804"/>
				<stop  offset="0.1021" style="stop-color:#7DEB31;stop-opacity:0.6395"/>
				<stop  offset="0.1197" style="stop-color:#95EF57;stop-opacity:0.4866"/>
				<stop  offset="0.1385" style="stop-color:#B4F388;stop-opacity:0.3239"/>
				<stop  offset="0.1578" style="stop-color:#D9F9C2;stop-opacity:0.1557"/>
				<stop  offset="0.1758" style="stop-color:#FFFFFF;stop-opacity:0"/>
				<stop  offset="0.2048" style="stop-color:#DAF9C4;stop-opacity:0.123"/>
				<stop  offset="0.2339" style="stop-color:#B9F490;stop-opacity:0.2462"/>
				<stop  offset="0.2636" style="stop-color:#9DF064;stop-opacity:0.3718"/>
				<stop  offset="0.2933" style="stop-color:#86EC40;stop-opacity:0.4972"/>
				<stop  offset="0.3229" style="stop-color:#75EA24;stop-opacity:0.6227"/>
				<stop  offset="0.3526" style="stop-color:#68E810;stop-opacity:0.7482"/>
				<stop  offset="0.3823" style="stop-color:#61E604;stop-opacity:0.8738"/>
				<stop  offset="0.4121" style="stop-color:#5EE600"/>
				<stop  offset="0.5394" style="stop-color:#FFFFFF;stop-opacity:0"/>
				<stop  offset="0.5429" style="stop-color:#EAFCDE;stop-opacity:0.0384"/>
				<stop  offset="0.5484" style="stop-color:#CDF7B0;stop-opacity:0.0991"/>
				<stop  offset="0.5544" style="stop-color:#B2F386;stop-opacity:0.1655"/>
				<stop  offset="0.5608" style="stop-color:#9CF062;stop-opacity:0.236"/>
				<stop  offset="0.5677" style="stop-color:#88ED43;stop-opacity:0.3119"/>
				<stop  offset="0.5753" style="stop-color:#79EA2A;stop-opacity:0.3948"/>
				<stop  offset="0.5837" style="stop-color:#6DE817;stop-opacity:0.4875"/>
				<stop  offset="0.5935" style="stop-color:#64E70A;stop-opacity:0.5956"/>
				<stop  offset="0.606" style="stop-color:#5FE602;stop-opacity:0.7332"/>
				<stop  offset="0.6303" style="stop-color:#5EE600"/>
				<stop  offset="0.7212" style="stop-color:#FFFFFF;stop-opacity:0"/>
				<stop  offset="0.7236" style="stop-color:#F4FDED;stop-opacity:0.0327"/>
				<stop  offset="0.7316" style="stop-color:#D1F8B6;stop-opacity:0.1429"/>
				<stop  offset="0.7399" style="stop-color:#B2F386;stop-opacity:0.2569"/>
				<stop  offset="0.7483" style="stop-color:#98EF5D;stop-opacity:0.3723"/>
				<stop  offset="0.7568" style="stop-color:#83EC3B;stop-opacity:0.4895"/>
				<stop  offset="0.7655" style="stop-color:#73E921;stop-opacity:0.6089"/>
				<stop  offset="0.7744" style="stop-color:#67E70F;stop-opacity:0.7314"/>
				<stop  offset="0.7837" style="stop-color:#60E604;stop-opacity:0.859"/>
				<stop  offset="0.7939" style="stop-color:#5EE600"/>
				<stop  offset="0.8848" style="stop-color:#FFFFFF;stop-opacity:0"/>
				<stop  offset="0.8975" style="stop-color:#DEFACB;stop-opacity:0.1102"/>
				<stop  offset="0.9124" style="stop-color:#BDF596;stop-opacity:0.239"/>
				<stop  offset="0.9274" style="stop-color:#A0F068;stop-opacity:0.3696"/>
				<stop  offset="0.9423" style="stop-color:#88ED43;stop-opacity:0.4992"/>
				<stop  offset="0.9571" style="stop-color:#76EA25;stop-opacity:0.6276"/>
				<stop  offset="0.9717" style="stop-color:#68E811;stop-opacity:0.7546"/>
				<stop  offset="0.9861" style="stop-color:#61E604;stop-opacity:0.8795"/>
				<stop  offset="1" style="stop-color:#5EE600"/>
			</radialGradient>
			<path fill="url(#SVGID_1_)" d="M256.5,25.914c51.089,0,92.5,41.411,92.5,92.5c0,51.089-41.411,92.5-92.5,92.5
				c-51.09,0-92.5-41.411-92.5-92.5C164,67.325,205.41,25.914,256.5,25.914z"/>
		</g>
		<g>
		</g>
	</g>
	<circle fill="#51BDE4" cx="176" cy="310" r="58"/>
	<polygon fill="#51BDE4" points="120.77,197.837 88.458,212.872 91.594,177.371 94.73,141.872 123.906,162.338 153.083,182.803 	"/>
	<polygon fill="#51BDE4" points="228.77,200.837 261.082,215.872 257.945,180.371 254.81,144.872 225.634,165.338 196.458,185.803 	
		"/>
	
		<rect x="90.657" y="211.956" transform="matrix(0.3979 0.9174 -0.9174 0.3979 289.2065 15.2629)" fill="#51BDE4" width="84.637" height="32"/>
	
		<rect x="174.661" y="209.965" transform="matrix(-0.3979 0.9174 -0.9174 -0.3979 510.6168 116.7982)" fill="#51BDE4" width="84.636" height="32"/>
	<polygon fill="#51BDE4" points="110.322,22.978 124.155,38.891 103.459,42.913 82.764,46.935 89.626,27 96.489,7.065 	"/>
	<polygon fill="#51BDE4" points="237.116,22.978 223.283,38.89 243.979,42.912 264.675,46.935 257.812,27 250.949,7.065 	"/>
	<path fill="#51BDE4" d="M107.296,36.616l-13.947-5.521C101.923,9.432,142.574,2.66,177.761,3.55
		c32.668,0.825,69.905,8.587,76.443,27.9l-14.209,4.81c-2.648-7.826-27.341-16.824-62.613-17.714
		C141.863,17.652,111.728,25.417,107.296,36.616z"/>
</g>
</svg>
